<?xml version="1.0" standalone="no"?>
<!DOCTYPE svg PUBLIC "-//W3C//DTD SVG 20010904//EN"
 "http://www.w3.org/TR/2001/REC-SVG-20010904/DTD/svg10.dtd">
<svg version="1.0" xmlns="http://www.w3.org/2000/svg"
 width="1120.000000pt" height="1446.000000pt" viewBox="0 0 1120.000000 1446.000000"
 preserveAspectRatio="xMidYMid meet">

<g transform="translate(0.000000,1446.000000) scale(0.100000,-0.100000)"
fill="#000000" stroke="none">
<path d="M5245 13884 c-44 -7 -98 -13 -121 -13 -64 -1 -323 -53 -489 -98 -49
-14 -112 -31 -140 -38 -27 -8 -102 -32 -165 -55 -63 -23 -126 -45 -140 -49
-14 -5 -43 -16 -65 -26 -22 -9 -56 -24 -75 -32 -54 -23 -123 -55 -140 -65 -8
-4 -22 -11 -30 -14 -18 -8 -108 -51 -132 -65 -10 -5 -26 -13 -35 -19 -10 -5
-40 -21 -66 -34 -26 -14 -79 -45 -118 -68 -38 -24 -78 -47 -87 -53 -45 -27
-137 -90 -140 -97 -2 -5 -9 -8 -16 -8 -6 0 -21 -7 -31 -15 -11 -8 -45 -33 -75
-55 -30 -21 -62 -45 -70 -53 -8 -8 -40 -31 -70 -52 -30 -20 -59 -42 -65 -49
-5 -6 -53 -47 -105 -90 -103 -86 -396 -377 -499 -496 -36 -41 -72 -82 -80 -91
-54 -55 -166 -183 -263 -300 -107 -129 -326 -457 -369 -554 -5 -11 -25 -47
-44 -80 -33 -58 -120 -232 -190 -380 -37 -78 -92 -209 -126 -300 -13 -33 -26
-64 -30 -70 -4 -5 -19 -46 -34 -90 -14 -44 -30 -89 -35 -100 -11 -23 -78 -227
-110 -335 -12 -41 -28 -93 -35 -115 -14 -43 -27 -92 -91 -345 -9 -36 -20 -85
-24 -110 -5 -25 -20 -101 -35 -170 -29 -139 -52 -274 -66 -395 -5 -44 -14
-105 -19 -135 -6 -30 -15 -140 -20 -245 -6 -104 -12 -208 -15 -230 -16 -133 7
-1070 30 -1190 3 -16 15 -95 26 -175 11 -80 24 -174 29 -210 5 -36 16 -96 25
-135 8 -38 22 -104 31 -145 23 -109 91 -380 118 -467 9 -29 22 -74 30 -100 22
-76 108 -326 146 -423 12 -30 25 -68 30 -83 5 -16 13 -34 18 -40 4 -7 18 -39
31 -72 13 -33 39 -93 57 -133 19 -41 34 -76 34 -79 0 -11 209 -419 241 -468
10 -16 23 -40 28 -52 6 -12 23 -41 38 -65 29 -46 32 -50 77 -125 27 -45 172
-266 188 -288 5 -5 54 -71 110 -145 55 -74 119 -157 142 -185 23 -27 48 -58
56 -69 123 -158 476 -509 658 -656 35 -28 70 -56 77 -63 7 -6 25 -21 40 -31
14 -11 35 -27 45 -35 10 -9 28 -23 40 -31 12 -8 41 -29 64 -45 22 -17 61 -44
86 -60 25 -17 47 -32 50 -35 12 -13 96 -65 127 -79 11 -5 24 -15 28 -21 4 -6
17 -15 28 -21 12 -5 49 -25 82 -44 58 -33 359 -184 420 -210 63 -27 161 -65
270 -105 107 -40 129 -47 175 -59 25 -6 68 -18 95 -26 167 -50 346 -83 705
-130 19 -2 143 -7 275 -10 479 -12 826 26 1240 137 135 36 377 116 390 129 5
5 15 9 23 9 8 0 36 9 61 21 25 12 62 28 81 36 111 47 325 153 381 189 22 13
50 29 62 35 12 5 49 27 82 49 33 22 67 43 75 47 17 8 154 101 216 147 23 17
52 38 64 46 28 18 173 131 180 140 3 3 39 33 81 67 42 34 162 147 266 250 184
182 228 229 323 343 25 30 59 70 75 90 17 19 44 53 60 75 16 22 32 42 35 45 6
5 142 189 204 276 19 27 50 73 68 103 18 30 40 64 48 77 8 12 39 62 68 110 29
49 57 96 62 104 22 36 107 187 118 210 6 14 16 32 20 40 21 37 32 59 57 110
14 30 31 62 36 70 5 8 12 22 15 30 3 8 18 42 33 75 16 33 47 105 70 160 24 55
51 118 61 140 10 22 25 63 35 90 27 77 57 157 71 192 8 17 14 36 14 42 0 6 6
25 14 43 16 38 74 226 105 343 67 249 121 476 121 508 0 12 6 51 14 87 107
483 138 1404 71 2080 -33 331 -106 730 -190 1035 -9 33 -23 83 -30 112 -7 29
-20 71 -28 95 -9 24 -30 88 -47 143 -17 55 -41 125 -52 155 -11 30 -27 73 -35
95 -16 42 -47 119 -69 172 -8 17 -14 36 -14 43 0 7 -6 24 -14 38 -8 15 -24 47
-35 72 -11 25 -32 72 -46 105 -49 110 -189 390 -202 403 -7 7 -13 17 -13 22 0
5 -31 63 -70 129 -38 66 -70 122 -70 125 0 4 -152 236 -202 309 -96 138 -203
281 -278 371 -196 235 -254 299 -410 454 -202 201 -531 471 -702 577 -9 6 -43
28 -75 50 -32 22 -66 45 -75 50 -136 81 -186 109 -270 153 -35 17 -70 36 -78
41 -22 12 -170 81 -205 95 -16 7 -46 20 -65 29 -19 10 -48 21 -65 26 -16 5
-55 19 -85 31 -139 54 -382 125 -525 154 -346 69 -452 79 -890 81 -264 2 -393
-1 -450 -11z m860 -69 c191 -20 239 -27 305 -40 235 -48 327 -69 410 -95 30
-9 82 -25 115 -35 33 -10 83 -27 110 -38 28 -10 66 -25 85 -32 185 -69 501
-222 630 -305 17 -11 113 -70 138 -85 113 -67 446 -317 497 -371 6 -6 42 -37
80 -69 103 -86 383 -372 512 -521 138 -161 213 -258 351 -454 97 -138 109
-156 115 -170 4 -8 25 -42 47 -75 140 -214 335 -584 449 -855 18 -41 36 -79
42 -84 5 -6 9 -18 9 -29 0 -10 5 -28 12 -40 7 -12 18 -35 24 -52 7 -16 22 -55
34 -85 12 -30 27 -73 35 -95 7 -22 25 -71 39 -109 14 -38 26 -75 26 -83 0 -8
6 -29 14 -46 8 -18 24 -66 36 -107 12 -41 28 -95 35 -120 14 -49 45 -169 69
-265 13 -55 34 -156 71 -340 25 -129 46 -259 55 -360 5 -55 14 -138 19 -185
36 -317 39 -1059 7 -1390 -31 -309 -36 -356 -52 -445 -8 -49 -22 -128 -30
-175 -23 -130 -55 -280 -70 -329 -8 -25 -14 -53 -14 -63 0 -20 -57 -224 -102
-368 -17 -52 -34 -108 -39 -125 -9 -34 -37 -113 -69 -195 -12 -30 -26 -69 -31
-87 -5 -18 -16 -45 -24 -60 -8 -15 -15 -33 -15 -40 0 -6 -6 -24 -14 -40 -8
-15 -27 -57 -42 -93 -88 -213 -234 -504 -372 -740 -50 -87 -292 -455 -345
-525 -372 -493 -767 -884 -1194 -1183 -91 -64 -288 -189 -353 -225 -67 -36
-347 -176 -410 -204 -19 -9 -43 -20 -53 -25 -10 -5 -71 -28 -135 -52 -102 -37
-168 -59 -372 -121 -88 -27 -373 -84 -475 -95 -44 -5 -93 -11 -110 -14 -16 -2
-118 -10 -225 -17 -316 -19 -682 0 -985 52 -122 22 -428 94 -448 106 -6 3 -27
10 -46 14 -20 4 -67 19 -106 34 -38 14 -83 30 -100 35 -30 8 -83 29 -142 56
-18 8 -47 21 -65 29 -97 42 -288 136 -293 145 -3 6 -12 10 -20 10 -13 0 -128
64 -205 114 -424 276 -558 383 -880 706 -274 273 -442 475 -656 785 -105 153
-224 339 -224 351 0 2 -19 34 -41 71 -23 38 -71 124 -106 192 -35 68 -68 131
-73 140 -37 66 -193 420 -237 536 -8 22 -23 59 -34 83 -10 23 -19 49 -19 57 0
8 -6 29 -14 47 -21 50 -52 137 -70 198 -9 30 -30 98 -47 150 -17 52 -34 113
-39 135 -4 22 -21 94 -38 160 -16 66 -40 165 -51 220 -12 55 -26 121 -32 146
-12 53 -35 207 -50 324 -5 44 -14 105 -19 135 -18 102 -40 563 -40 845 0 281
20 696 39 816 6 35 17 114 26 174 28 200 64 405 84 484 6 20 19 81 31 136 12
55 28 120 35 145 8 25 23 81 35 125 12 44 28 100 35 125 8 25 31 99 50 165 20
66 42 136 50 155 7 19 22 60 33 90 47 130 95 257 107 285 7 17 32 75 56 130
71 170 196 427 263 545 14 25 40 72 58 104 41 73 42 75 141 226 96 146 125
185 214 292 48 57 89 105 93 108 3 3 77 86 165 185 298 337 600 618 850 791
121 83 192 131 205 137 8 4 42 25 75 47 33 22 69 44 80 50 11 6 47 26 80 45
56 33 306 157 405 203 171 77 564 208 700 232 25 4 99 20 165 34 66 14 188 33
270 41 83 8 168 17 190 19 47 5 662 -3 720 -9z"/>
<path d="M5351 13628 c-292 -17 -751 -112 -938 -194 -17 -8 -36 -14 -42 -14
-6 0 -25 -7 -43 -14 -18 -8 -62 -26 -98 -40 -36 -14 -93 -39 -128 -55 -34 -17
-68 -31 -75 -31 -7 0 -17 -4 -22 -9 -6 -5 -50 -30 -100 -57 -49 -26 -103 -56
-120 -66 -16 -10 -43 -25 -60 -33 -30 -16 -79 -47 -217 -139 -531 -355 -1114
-954 -1484 -1526 -27 -41 -54 -84 -60 -95 -49 -88 -69 -124 -86 -153 -72 -119
-176 -332 -268 -547 -5 -11 -18 -41 -29 -67 -12 -26 -21 -50 -21 -53 0 -3 -9
-25 -19 -48 -11 -24 -23 -55 -26 -70 -4 -15 -11 -30 -16 -33 -5 -3 -9 -12 -9
-21 0 -8 -6 -29 -14 -46 -8 -18 -26 -68 -41 -112 -14 -44 -30 -89 -34 -100 -4
-11 -18 -54 -31 -95 -13 -41 -29 -93 -36 -115 -7 -22 -22 -76 -33 -120 -12
-44 -28 -102 -36 -130 -31 -106 -89 -381 -115 -543 -5 -34 -15 -83 -20 -108
-6 -25 -15 -85 -21 -132 -5 -48 -12 -98 -14 -112 -6 -36 -12 -99 -32 -310 -23
-250 -23 -698 1 -955 9 -104 19 -210 21 -235 6 -76 35 -291 50 -370 7 -41 21
-120 30 -175 9 -55 23 -125 31 -155 8 -30 19 -77 24 -105 12 -66 28 -138 46
-200 7 -27 23 -86 35 -130 32 -118 87 -300 116 -380 14 -38 31 -88 37 -110 7
-22 18 -53 24 -68 7 -16 12 -31 12 -34 0 -3 6 -19 14 -36 8 -18 31 -75 51
-127 21 -52 47 -115 58 -140 11 -25 26 -58 33 -75 24 -57 125 -270 134 -285 6
-8 25 -44 43 -80 122 -237 354 -591 503 -765 24 -27 87 -102 141 -165 228
-268 580 -601 822 -780 104 -76 249 -178 306 -214 33 -21 72 -47 87 -57 15
-11 30 -19 34 -19 3 0 18 -8 32 -19 23 -16 67 -40 252 -137 104 -54 300 -138
412 -175 47 -16 97 -33 110 -38 38 -15 277 -79 358 -95 290 -59 307 -60 780
-61 418 0 453 1 585 23 222 36 273 48 500 109 127 34 357 118 500 182 609 272
1179 725 1679 1336 54 65 109 135 122 155 14 19 42 60 65 90 57 79 220 325
260 393 19 32 39 66 44 75 102 173 173 308 275 527 31 68 77 170 90 200 4 11
17 40 28 65 20 48 36 88 72 185 12 33 27 76 35 95 7 19 22 60 33 90 11 30 34
102 52 160 17 58 38 128 47 155 9 28 19 66 23 85 4 19 22 91 39 160 110 443
158 794 172 1265 10 331 -2 936 -21 1045 -5 30 -14 102 -19 160 -6 58 -15 125
-20 150 -6 25 -15 77 -21 115 -22 147 -39 230 -96 475 -60 251 -186 659 -255
825 -5 11 -28 70 -53 130 -49 121 -108 261 -124 291 -5 10 -44 89 -87 174
-104 211 -200 379 -313 551 -20 31 -50 76 -66 100 -38 58 -176 236 -295 379
-105 127 -476 505 -604 616 -86 75 -332 266 -414 322 -84 58 -215 142 -221
142 -3 0 -13 6 -21 14 -17 15 -92 58 -186 106 -33 17 -67 35 -75 41 -84 52
-503 221 -620 249 -19 5 -89 22 -155 39 -216 54 -391 84 -580 97 -119 8 -553
10 -684 2z m859 -92 c52 -9 138 -23 190 -32 84 -14 182 -38 330 -79 606 -169
1235 -560 1791 -1115 444 -443 781 -907 1010 -1390 48 -101 69 -144 79 -160
11 -19 108 -251 144 -342 65 -168 76 -200 111 -308 21 -63 43 -131 50 -150 7
-19 19 -60 28 -90 9 -30 23 -80 33 -110 9 -30 22 -80 29 -110 7 -30 20 -82 28
-115 8 -33 27 -116 41 -185 14 -69 33 -156 41 -195 15 -69 25 -139 66 -440 43
-320 46 -1228 4 -1550 -41 -327 -88 -585 -148 -815 -16 -63 -33 -133 -38 -156
-4 -22 -12 -51 -18 -65 -5 -13 -20 -58 -32 -99 -12 -41 -35 -113 -51 -160 -16
-47 -33 -98 -38 -115 -5 -16 -17 -52 -28 -80 -11 -27 -33 -86 -50 -130 -16
-44 -38 -98 -47 -120 -10 -22 -24 -55 -31 -72 -66 -157 -194 -421 -253 -521
-17 -29 -31 -55 -31 -58 0 -7 -114 -198 -161 -269 -21 -33 -42 -67 -46 -75 -9
-19 -151 -224 -222 -320 -114 -155 -298 -372 -466 -549 -215 -226 -690 -598
-925 -724 -19 -10 -46 -26 -60 -35 -14 -9 -61 -35 -105 -58 -44 -22 -89 -45
-100 -51 -53 -28 -179 -85 -265 -118 -52 -20 -105 -40 -117 -45 -42 -17 -169
-58 -233 -75 -36 -9 -85 -23 -110 -30 -122 -37 -402 -84 -565 -95 -165 -12
-603 -12 -761 -1 -151 11 -422 58 -554 96 -114 33 -288 88 -317 101 -17 8 -36
14 -43 14 -7 0 -24 6 -38 14 -15 8 -56 26 -92 41 -80 34 -190 83 -210 94 -8 4
-46 25 -85 46 -59 32 -164 92 -240 138 -11 7 -41 27 -68 45 -26 17 -49 32 -52
32 -12 0 -259 182 -365 269 -166 137 -182 151 -446 416 -312 314 -537 589
-701 858 -83 136 -84 138 -169 292 -81 147 -200 400 -266 565 -27 69 -55 139
-63 155 -7 17 -25 64 -39 105 -14 41 -36 107 -49 145 -14 39 -35 104 -47 145
-12 41 -27 86 -32 100 -6 14 -16 50 -23 80 -7 30 -24 96 -37 145 -14 50 -35
135 -48 190 -12 55 -26 114 -30 130 -5 17 -18 84 -30 150 -11 66 -27 154 -35
196 -9 42 -20 116 -25 165 -5 49 -11 105 -14 124 -3 19 -10 85 -16 145 -5 61
-15 166 -21 235 -20 207 -15 670 10 920 23 244 44 406 66 530 47 260 53 289
115 552 41 168 84 317 162 553 55 167 88 255 100 269 4 6 8 16 8 24 0 12 87
227 124 307 49 105 181 370 210 420 19 33 46 82 60 108 46 86 211 334 298 450
288 380 761 856 1079 1087 26 19 86 63 134 98 47 34 88 62 91 62 2 0 17 9 32
19 44 31 165 106 192 119 14 7 41 22 60 33 74 45 257 133 390 188 30 13 69 29
85 36 44 18 212 74 275 92 244 66 300 77 655 127 17 2 212 3 435 1 323 -2 424
-5 500 -19z"/>
<path d="M5730 13351 c-98 -32 -183 -140 -195 -246 -13 -124 16 -211 89 -268
86 -68 100 -72 231 -72 109 0 124 3 160 24 93 56 136 113 155 209 27 134 -35
278 -145 334 -32 16 -64 21 -155 24 -63 2 -126 0 -140 -5z m225 -69 c22 -15
52 -50 67 -77 67 -122 13 -319 -104 -381 -41 -21 -111 -18 -155 8 -46 27 -59
41 -83 93 -31 67 -34 124 -11 198 25 81 43 112 90 154 32 29 42 33 96 33 49
-1 67 -6 100 -28z"/>
<path d="M5231 13323 l-20 -18 20 -170 c11 -93 23 -208 26 -255 3 -47 10 -93
15 -102 10 -21 66 -24 91 -5 19 13 18 30 -18 322 -8 66 -15 143 -15 171 0 27
-5 55 -12 62 -18 18 -63 15 -87 -5z"/>
<path d="M4835 13263 c-164 -39 -256 -128 -272 -262 -14 -121 43 -245 142
-309 59 -38 190 -44 274 -12 75 28 141 82 141 116 0 39 -29 42 -59 7 -31 -37
-114 -83 -150 -83 -40 0 -101 20 -132 42 -35 26 -88 133 -98 199 -15 93 20
175 94 226 30 20 45 24 83 20 26 -2 62 -10 80 -18 40 -17 66 -4 70 33 7 57
-50 70 -173 41z"/>
<path d="M6434 13253 c-3 -16 -12 -46 -20 -68 -7 -22 -25 -78 -38 -125 -14
-47 -41 -137 -61 -200 l-36 -115 22 -17 c36 -30 56 -22 79 26 11 25 20 51 20
58 0 7 6 30 14 53 17 47 41 128 50 168 4 15 12 27 19 27 6 0 36 -58 66 -128
30 -70 69 -158 86 -197 18 -38 37 -82 43 -98 14 -33 57 -55 79 -41 15 9 31 55
73 204 12 41 26 86 32 100 11 27 31 95 52 178 l14 53 -30 15 c-16 9 -36 13
-43 10 -7 -2 -30 -58 -50 -123 -21 -65 -44 -139 -52 -165 -9 -27 -21 -48 -29
-48 -8 0 -14 5 -14 11 0 12 -5 22 -69 162 -23 49 -41 90 -41 92 0 21 -84 176
-99 184 -36 20 -60 13 -67 -16z"/>
<path d="M4072 12978 c-8 -8 -12 -50 -11 -127 0 -147 22 -472 32 -489 12 -18
40 -15 65 8 20 19 21 27 15 93 -4 40 -8 92 -8 115 0 43 1 44 62 77 l62 33 56
-49 c31 -27 68 -63 82 -79 29 -36 43 -37 100 -9 66 32 65 33 -67 144 -46 39
-141 121 -212 183 -126 110 -152 124 -176 100z m132 -207 c34 -35 31 -61 -7
-74 -37 -12 -45 -3 -53 56 -6 42 -5 47 13 47 10 0 32 -13 47 -29z"/>
<path d="M7168 12782 c-271 -205 -298 -226 -298 -237 0 -14 53 -45 75 -45 9 0
53 32 96 70 44 39 85 70 91 70 17 0 119 -61 124 -75 3 -7 0 -46 -6 -86 -24
-147 -24 -148 -4 -155 11 -4 27 -13 36 -21 9 -8 27 -13 40 -11 22 3 24 10 40
143 10 77 24 211 33 299 16 167 13 186 -26 186 -10 0 -100 -62 -201 -138z
m117 -32 c11 -19 -7 -110 -22 -110 -18 0 -73 32 -73 42 0 9 72 77 82 78 4 0
10 -4 13 -10z"/>
<path d="M3607 12706 l-29 -23 71 -94 c38 -52 86 -115 106 -142 32 -41 34 -48
19 -54 -19 -7 -106 7 -234 37 -209 49 -280 49 -280 1 0 -11 64 -104 142 -208
189 -252 181 -242 199 -242 15 -1 59 38 59 52 0 8 -138 193 -183 246 -39 45
-26 57 50 43 106 -20 207 -42 258 -56 75 -22 161 -29 184 -16 39 20 36 27
-134 249 -33 44 -86 113 -118 155 -32 42 -63 76 -70 76 -7 -1 -25 -11 -40 -24z"/>
<path d="M7708 12558 c-41 -51 -113 -143 -161 -204 -48 -62 -94 -117 -102
-124 -24 -20 -18 -32 33 -73 26 -20 78 -62 116 -92 69 -55 102 -67 112 -41 9
23 -6 41 -76 88 -36 24 -66 52 -68 60 -2 9 65 102 147 207 83 105 151 197 151
205 0 13 -27 36 -67 60 -7 4 -40 -29 -85 -86z"/>
<path d="M5445 12560 c-44 -4 -100 -13 -125 -19 -25 -6 -66 -11 -91 -11 -25 0
-68 -7 -95 -15 -27 -8 -59 -15 -72 -15 -12 0 -48 -9 -79 -20 -32 -11 -69 -20
-83 -20 -14 0 -34 -7 -44 -15 -11 -8 -31 -15 -46 -15 -14 0 -34 -6 -45 -14
-11 -7 -33 -16 -50 -20 -16 -4 -43 -13 -60 -20 -16 -8 -55 -24 -85 -37 -62
-25 -128 -56 -150 -69 -8 -5 -40 -21 -70 -35 -253 -119 -664 -430 -870 -658
-125 -138 -191 -215 -246 -282 -27 -33 -55 -68 -64 -77 -59 -65 -215 -271
-241 -318 -11 -19 -28 -48 -39 -65 -11 -16 -25 -39 -30 -50 -6 -11 -22 -38
-35 -60 -14 -22 -27 -47 -31 -55 -3 -8 -10 -22 -15 -30 -5 -8 -28 -53 -50
-100 -23 -47 -45 -92 -50 -100 -5 -8 -14 -26 -20 -40 -6 -14 -17 -37 -25 -52
-8 -14 -14 -35 -14 -46 0 -11 -6 -25 -14 -31 -8 -7 -18 -27 -22 -44 -3 -18
-13 -41 -20 -52 -8 -11 -14 -29 -14 -41 0 -12 -6 -27 -14 -33 -8 -7 -17 -28
-21 -48 -3 -19 -11 -43 -16 -52 -12 -22 -38 -97 -50 -146 -6 -21 -14 -44 -18
-50 -4 -5 -13 -28 -19 -50 -6 -22 -20 -71 -32 -110 -12 -38 -27 -95 -35 -125
-33 -129 -37 -147 -47 -180 -12 -37 -32 -136 -49 -235 -6 -33 -15 -73 -20 -90
-5 -16 -14 -77 -20 -134 -5 -57 -14 -111 -19 -121 -5 -10 -14 -80 -20 -155 -6
-76 -15 -156 -21 -179 -13 -55 -6 -913 9 -1026 6 -47 16 -125 22 -175 18 -167
32 -260 45 -310 7 -27 17 -77 23 -110 23 -130 39 -201 50 -222 7 -12 12 -35
12 -50 0 -16 9 -54 20 -86 11 -31 20 -63 20 -71 0 -7 7 -27 15 -42 8 -16 15
-40 15 -54 0 -14 6 -34 14 -45 7 -11 16 -37 20 -57 4 -20 13 -50 21 -65 8 -15
15 -38 15 -50 0 -12 7 -28 15 -37 8 -8 15 -25 15 -38 0 -13 6 -33 14 -44 8
-11 17 -37 21 -57 4 -20 13 -41 21 -48 8 -6 14 -17 14 -24 0 -21 109 -264 159
-355 5 -8 21 -40 36 -70 14 -30 30 -62 35 -70 23 -39 166 -283 176 -301 6 -10
18 -27 26 -36 8 -10 18 -25 21 -33 4 -8 31 -49 61 -90 30 -41 67 -93 83 -115
15 -22 32 -44 37 -50 6 -5 38 -44 70 -85 33 -41 63 -77 66 -80 4 -3 42 -45 87
-95 101 -113 160 -173 253 -255 40 -36 80 -72 89 -81 19 -19 219 -173 279
-214 98 -68 298 -185 316 -185 7 0 16 -7 20 -15 3 -8 12 -15 20 -15 8 0 45
-15 82 -34 38 -18 89 -42 114 -52 25 -9 64 -26 87 -36 23 -10 50 -18 60 -18
11 0 24 -5 30 -11 9 -9 29 -15 163 -49 25 -6 59 -16 75 -22 17 -6 59 -14 94
-19 36 -5 79 -13 97 -19 116 -38 851 -38 974 1 19 6 62 14 95 19 73 10 122 23
240 62 50 16 101 32 115 35 14 3 43 14 66 24 22 10 46 19 52 19 7 0 20 4 30
10 14 8 133 63 197 91 19 8 31 15 72 39 10 6 32 17 48 26 33 17 56 30 95 55
135 87 172 113 220 148 30 22 61 46 68 52 8 6 48 39 90 72 155 123 346 312
500 496 145 173 164 198 294 394 112 168 107 159 119 187 5 13 14 27 19 30 4
3 27 41 50 85 24 44 49 89 56 100 8 11 14 27 14 37 0 10 4 18 9 18 8 0 42 65
79 150 8 19 19 42 23 50 5 8 14 26 19 40 10 25 17 39 59 131 12 25 21 51 21
57 0 6 6 23 14 39 32 67 61 143 82 217 8 28 18 54 24 60 5 5 10 19 10 30 0 11
9 43 19 71 33 86 51 149 51 173 0 13 5 33 11 44 11 21 29 88 50 193 6 28 17
75 24 105 14 57 29 141 46 270 6 41 17 107 24 145 8 39 17 122 20 185 3 63 9
138 12 165 8 64 8 803 0 875 -3 30 -10 119 -15 196 -5 78 -13 147 -17 154 -4
7 -11 50 -16 95 -4 45 -14 113 -22 151 -20 92 -36 168 -47 229 -5 28 -16 68
-24 90 -8 22 -15 54 -16 70 0 17 -7 41 -15 55 -8 14 -14 40 -15 58 0 18 -6 45
-14 60 -8 15 -18 45 -22 66 -4 22 -13 51 -20 65 -8 14 -14 35 -14 47 0 11 -7
29 -15 40 -8 10 -15 30 -15 44 0 14 -6 34 -14 45 -7 11 -18 36 -24 55 -15 50
-40 119 -58 160 -9 19 -21 49 -28 65 -7 17 -20 46 -29 65 -55 127 -257 519
-283 551 -6 8 -15 24 -18 37 -4 12 -12 22 -17 22 -5 0 -9 6 -9 14 0 7 -16 34
-35 59 -19 25 -35 50 -35 55 0 5 -9 17 -20 27 -11 10 -20 22 -20 27 0 16 -235
327 -320 423 -54 61 -328 335 -390 391 -134 119 -320 253 -490 351 -36 21 -74
43 -85 50 -11 6 -49 26 -85 43 -36 18 -92 45 -124 61 -33 16 -66 29 -75 29 -9
0 -25 7 -35 15 -11 8 -27 15 -35 15 -9 1 -34 9 -56 20 -22 11 -48 19 -58 20
-10 0 -28 5 -40 12 -22 11 -93 30 -192 49 -27 6 -63 15 -80 21 -16 6 -68 14
-115 18 -47 5 -105 13 -130 19 -59 14 -462 22 -565 11z m588 -55 c32 -8 81
-15 109 -15 28 0 74 -6 102 -14 28 -8 71 -19 96 -25 87 -19 135 -33 163 -47
16 -8 38 -14 50 -14 12 -1 40 -9 62 -20 22 -11 45 -19 52 -20 6 0 24 -6 40
-14 69 -35 121 -56 136 -56 8 0 17 -4 19 -8 2 -4 46 -29 98 -55 52 -27 109
-57 125 -68 17 -10 41 -24 55 -31 14 -7 46 -27 72 -45 26 -18 52 -33 57 -33 5
0 11 -7 15 -15 3 -8 10 -15 16 -15 13 0 224 -164 312 -242 242 -217 455 -459
635 -723 26 -38 50 -72 53 -75 10 -10 50 -69 50 -75 0 -3 15 -27 33 -53 47
-71 56 -85 67 -109 5 -12 22 -41 37 -65 15 -24 40 -68 55 -98 15 -30 32 -63
38 -72 25 -44 31 -55 40 -78 6 -14 17 -38 25 -55 7 -16 16 -37 19 -45 3 -8 10
-22 14 -30 9 -15 33 -69 67 -145 9 -22 23 -53 31 -70 15 -34 43 -110 51 -140
2 -11 11 -33 18 -50 29 -67 55 -141 55 -157 0 -10 6 -32 14 -50 27 -65 56
-164 56 -188 0 -14 6 -34 14 -45 7 -11 16 -42 20 -69 3 -27 10 -54 15 -60 5
-6 12 -33 16 -61 4 -27 13 -72 20 -100 16 -60 31 -147 48 -275 7 -52 16 -101
21 -109 5 -7 12 -77 17 -155 5 -77 13 -177 18 -221 13 -108 12 -760 0 -860 -6
-44 -14 -136 -19 -205 -4 -69 -11 -138 -15 -155 -4 -16 -11 -68 -17 -115 -5
-47 -16 -104 -24 -128 -8 -23 -14 -59 -14 -79 0 -19 -6 -56 -14 -82 -8 -25
-20 -70 -25 -98 -24 -119 -34 -160 -46 -193 -12 -33 -21 -64 -46 -162 -6 -24
-17 -56 -25 -71 -8 -16 -14 -36 -14 -45 0 -15 -24 -83 -56 -159 -8 -17 -14
-40 -14 -51 0 -11 -7 -25 -15 -32 -8 -7 -15 -21 -15 -31 0 -11 -9 -36 -20 -56
-11 -21 -20 -45 -20 -54 0 -9 -7 -22 -15 -29 -8 -7 -15 -20 -15 -29 0 -10 -16
-49 -35 -88 -19 -39 -35 -78 -35 -87 0 -8 -4 -18 -10 -21 -5 -3 -27 -41 -48
-83 -46 -94 -103 -198 -148 -273 -19 -31 -34 -61 -34 -66 0 -6 -9 -18 -20 -28
-11 -10 -20 -22 -20 -26 0 -28 -289 -423 -389 -532 -25 -27 -50 -56 -55 -64
-14 -25 -286 -294 -341 -338 -27 -22 -54 -45 -60 -51 -5 -7 -44 -37 -85 -68
-41 -31 -82 -63 -91 -71 -9 -8 -19 -15 -22 -15 -4 0 -34 -19 -67 -43 -74 -51
-103 -70 -155 -99 -22 -12 -48 -27 -57 -33 -53 -33 -264 -135 -278 -135 -10 0
-23 -7 -30 -15 -7 -8 -19 -15 -27 -15 -8 0 -29 -7 -46 -15 -66 -30 -185 -68
-286 -91 -35 -8 -72 -19 -82 -24 -10 -6 -30 -10 -46 -10 -15 0 -53 -7 -83 -15
-172 -46 -894 -46 -1013 0 -20 8 -55 15 -77 15 -21 0 -51 5 -67 11 -15 6 -53
17 -83 24 -57 14 -102 28 -158 51 -18 8 -43 14 -55 14 -12 0 -35 9 -52 20 -16
11 -40 20 -51 20 -12 0 -27 7 -34 15 -7 8 -23 15 -35 15 -12 0 -28 7 -35 15
-7 8 -18 15 -26 15 -11 0 -55 22 -204 103 -19 10 -48 27 -65 38 -16 10 -41 24
-55 31 -14 7 -27 15 -30 19 -3 3 -16 12 -29 19 -14 7 -30 17 -35 22 -13 10
-104 77 -136 98 -69 47 -269 220 -364 316 -135 136 -347 380 -393 452 -10 15
-20 29 -23 32 -18 17 -170 245 -204 304 -15 28 -34 58 -40 66 -7 8 -16 22 -20
30 -3 8 -22 42 -41 75 -19 33 -51 92 -70 130 -20 39 -40 77 -44 85 -28 49
-111 230 -111 243 0 8 -9 26 -20 40 -11 14 -20 32 -20 40 0 9 -7 28 -15 44 -8
15 -24 55 -36 88 -12 33 -28 74 -35 92 -8 17 -14 37 -14 45 -1 7 -9 31 -20 53
-11 22 -19 49 -20 60 0 12 -4 25 -10 31 -5 5 -14 30 -19 54 -5 25 -14 59 -19
75 -41 124 -52 163 -52 185 0 14 -7 38 -15 54 -8 15 -15 44 -15 62 0 19 -6 50
-14 68 -7 18 -17 62 -21 97 -4 35 -13 79 -21 98 -8 18 -14 53 -14 77 0 23 -6
73 -14 111 -8 37 -20 133 -26 213 -7 79 -16 155 -21 168 -12 32 -12 898 1 941
5 18 14 99 20 179 6 80 15 153 21 163 5 10 12 53 15 96 3 43 12 95 20 116 8
20 14 51 14 69 0 29 26 152 55 263 23 87 36 138 49 196 8 30 18 65 25 77 6 11
11 31 11 44 0 13 6 35 14 50 8 14 17 46 21 70 4 24 14 52 21 63 8 11 14 29 14
40 0 11 6 29 13 40 8 11 17 36 21 55 3 19 12 49 20 65 8 17 22 50 31 75 9 25
23 59 30 75 8 17 23 55 35 85 12 30 30 73 40 95 10 22 21 47 24 55 3 8 10 22
15 30 5 8 28 53 51 100 23 47 52 103 64 125 12 22 33 60 46 85 14 25 40 66 58
92 17 26 32 50 32 53 0 11 146 207 195 261 5 7 24 29 40 50 17 20 50 60 74 88
23 28 68 80 99 116 69 80 330 341 395 395 27 22 54 45 60 50 7 6 30 23 52 39
22 17 44 36 48 43 4 7 13 13 19 13 6 0 30 16 54 35 23 19 45 35 48 35 4 0 28
15 54 33 105 73 427 247 458 247 6 0 17 7 24 15 7 8 25 15 40 15 15 0 33 6 39
14 6 8 24 16 39 19 34 7 119 35 155 53 16 8 40 14 53 14 14 0 40 6 59 14 19 8
56 18 82 22 26 3 63 13 82 20 18 8 54 14 80 14 25 1 75 7 111 14 98 20 627 21
703 1z"/>
<path d="M5455 12183 c-79 -9 -243 -68 -325 -115 -8 -4 -22 -11 -30 -15 -99
-45 -246 -156 -312 -235 -92 -111 -121 -163 -157 -278 -30 -95 -30 -343 0
-450 42 -151 95 -268 176 -393 24 -38 47 -83 50 -101 8 -52 -14 -137 -62 -232
-35 -70 -42 -91 -32 -100 19 -19 183 -70 269 -84 100 -17 110 -28 63 -72 -33
-29 -65 -76 -142 -206 -21 -37 -137 -268 -154 -307 -4 -11 -17 -40 -27 -65
-20 -45 -104 -295 -135 -401 -26 -86 -22 -103 21 -80 40 23 145 51 330 92 24
5 120 18 215 29 276 32 617 24 852 -20 229 -43 344 -66 425 -87 52 -14 107
-27 121 -30 36 -7 47 15 12 23 -15 4 -37 14 -48 23 -11 10 -40 26 -65 37 -154
66 -361 184 -386 221 -23 35 -59 161 -85 303 -11 61 -11 207 1 250 49 186 72
250 92 261 9 5 70 2 149 -7 156 -17 204 -10 244 38 22 26 25 39 25 110 0 73
10 122 43 213 6 17 11 55 12 85 1 30 2 61 3 68 1 8 21 12 60 12 60 0 102 19
102 45 0 8 -11 39 -25 69 -14 30 -25 57 -25 60 0 4 -30 49 -66 102 -62 90 -66
99 -68 159 -3 57 -8 72 -65 166 -34 57 -59 109 -57 116 4 10 37 13 125 13 66
0 122 4 125 9 11 17 -214 283 -333 393 -138 128 -379 217 -554 205 -138 -9
-217 -45 -312 -141 -141 -141 -170 -251 -141 -525 10 -90 22 -175 27 -188 5
-13 9 -46 9 -72 l0 -47 -87 -57 c-48 -31 -92 -57 -98 -57 -11 0 -38 76 -69
190 -8 30 -20 102 -25 160 -16 156 13 360 70 485 21 46 78 127 107 153 54 48
132 102 144 102 8 0 22 6 33 13 46 31 171 57 272 59 56 0 107 4 114 9 13 8 11
9 -76 42 -93 34 -257 60 -330 50z m979 -891 c31 -54 56 -101 56 -104 0 -3 -17
3 -37 13 -24 12 -58 19 -94 19 -52 0 -62 -4 -125 -50 -93 -67 -94 -68 -94 -91
0 -25 15 -21 114 27 79 39 104 42 136 16 l23 -18 -35 -21 c-20 -12 -45 -24
-58 -28 -22 -7 -55 -69 -45 -85 3 -5 21 -2 40 7 33 16 35 16 53 -7 13 -17 24
-21 40 -16 18 6 22 15 22 50 0 51 35 111 65 111 17 0 21 -9 25 -50 3 -29 15
-63 28 -82 12 -17 22 -35 22 -40 0 -4 19 -31 41 -58 23 -28 51 -69 62 -93 30
-61 19 -74 -74 -87 l-74 -10 0 -68 c0 -74 -14 -97 -62 -97 -28 0 -30 -16 -3
-30 27 -14 35 -52 17 -86 -9 -18 -11 -36 -6 -49 4 -11 8 -42 8 -68 1 -63 -26
-92 -95 -101 -54 -7 -193 8 -224 24 -26 14 -76 13 -87 -2 -18 -22 -73 -196
-94 -290 -11 -53 -19 -130 -19 -183 0 -91 30 -288 50 -324 15 -28 12 -51 -5
-51 -8 0 -38 16 -65 35 -27 19 -52 35 -55 35 -3 0 -28 16 -55 35 -27 19 -53
35 -56 35 -11 0 -185 140 -304 244 -166 146 -300 276 -300 292 0 17 38 90 53
103 7 5 55 12 107 14 134 6 280 26 314 43 16 8 34 14 39 14 6 0 56 22 113 50
99 48 164 92 164 111 0 5 -15 32 -34 61 -110 173 -162 326 -186 542 -9 87 -9
90 15 122 52 68 261 198 373 233 95 29 182 49 219 50 30 1 35 -4 87 -97z"/>
<path d="M7236 11543 c-105 -115 -218 -267 -205 -276 26 -19 115 -94 117 -99
7 -16 42 -8 42 10 0 22 -9 34 -42 55 -38 24 -35 46 12 97 l40 44 35 -34 c29
-28 37 -31 50 -20 16 13 21 40 7 40 -13 0 -62 44 -62 55 0 19 71 85 83 78 7
-4 22 -20 35 -35 13 -15 30 -28 38 -28 19 0 28 24 17 44 -7 13 -120 106 -129
106 -2 0 -19 -17 -38 -37z"/>
<path d="M3857 11392 c-27 -6 -19 -28 76 -215 73 -144 85 -162 107 -162 38 0
36 32 -5 93 -19 30 -35 59 -35 66 0 7 11 23 24 35 28 26 51 24 123 -10 45 -22
74 -16 87 17 9 23 -8 37 -69 59 -27 10 -75 29 -105 42 -30 14 -66 29 -80 35
-14 5 -41 17 -60 26 -44 20 -41 19 -63 14z m137 -134 c8 -13 7 -21 -2 -30 -14
-14 -26 -4 -37 30 -6 19 -4 23 10 20 10 -1 23 -11 29 -20z"/>
<path d="M7544 11348 c-4 -6 6 -23 24 -39 18 -16 32 -34 32 -42 0 -7 -50 -62
-110 -122 -89 -89 -110 -115 -108 -135 6 -48 34 -33 147 79 62 62 120 111 131
111 10 0 27 -12 38 -27 13 -17 25 -24 36 -20 29 12 17 36 -59 114 -41 42 -75
80 -75 85 0 12 -48 10 -56 -4z"/>
<path d="M3610 11149 c-10 -18 -5 -27 47 -77 156 -153 218 -203 241 -197 49
12 27 45 -114 173 -74 67 -141 122 -149 122 -8 0 -19 -9 -25 -21z"/>
<path d="M3444 10953 c-120 -151 -119 -150 -104 -168 18 -22 26 -19 50 20 12
19 26 35 32 35 6 0 27 -14 47 -31 79 -67 215 -169 226 -169 16 0 35 21 35 40
0 8 -58 60 -130 115 -71 55 -129 103 -130 107 0 3 12 20 26 37 26 32 26 61 0
61 -8 0 -32 -21 -52 -47z"/>
<path d="M7895 10809 c-158 -108 -204 -143 -205 -155 0 -22 85 -143 103 -144
25 0 21 37 -8 72 -14 16 -25 33 -25 37 0 5 26 26 58 48 31 22 94 66 140 97 45
32 82 61 82 65 0 4 -10 17 -22 28 l-23 21 -100 -69z"/>
<path d="M3207 10628 c-9 -25 15 -48 94 -94 44 -25 78 -51 76 -58 -5 -14 -54
-22 -180 -32 -101 -7 -132 -20 -120 -50 4 -12 63 -52 188 -127 10 -7 41 -27
68 -45 53 -36 80 -38 85 -5 4 25 -48 66 -134 107 -34 17 -51 44 -31 51 6 2 75
10 152 17 137 13 140 13 140 37 0 13 -9 29 -20 35 -10 6 -41 26 -67 44 -26 17
-50 32 -52 32 -5 0 -77 46 -128 81 -31 22 -64 25 -71 7z"/>
<path d="M8190 10485 c-30 -7 -93 -21 -140 -30 -160 -33 -175 -38 -175 -65 0
-32 23 -36 85 -16 63 21 72 20 98 -4 32 -30 27 -57 -18 -106 -41 -44 -48 -70
-30 -104 19 -35 26 -29 216 220 66 86 68 89 54 105 -14 17 -17 17 -90 0z m-46
-98 c-7 -20 -29 -22 -40 -5 -9 14 27 41 38 30 5 -5 6 -16 2 -25z"/>
<path d="M2964 10178 c-4 -6 -22 -40 -41 -76 -32 -62 -33 -66 -16 -84 9 -10
76 -48 148 -84 71 -36 134 -69 140 -75 5 -5 16 -9 25 -9 19 0 104 145 96 165
-10 28 -35 15 -61 -34 l-27 -49 -37 17 c-91 42 -96 51 -59 102 19 26 20 31 7
44 -17 17 -29 10 -49 -29 -24 -47 -41 -52 -83 -25 -42 28 -45 44 -16 93 11 19
18 40 14 46 -8 14 -32 13 -41 -2z"/>
<path d="M8385 10172 c-13 -12 -270 -122 -283 -122 -19 0 -24 -40 -8 -65 9
-13 16 -30 16 -38 0 -8 17 -32 38 -55 32 -35 45 -42 76 -42 48 0 93 26 105 62
6 15 16 28 23 28 86 3 114 10 130 30 26 32 22 74 -12 147 -24 50 -35 63 -53
63 -13 0 -27 -4 -32 -8z m49 -78 c21 -8 20 -47 -1 -66 -30 -25 -53 -29 -84
-12 -39 20 -35 44 11 66 39 19 51 21 74 12z m-144 -101 c0 -29 -45 -73 -74
-73 -30 0 -66 27 -66 49 0 13 18 26 58 44 62 27 82 22 82 -20z"/>
<path d="M2802 9847 c-6 -6 -12 -21 -14 -31 -4 -22 25 -39 177 -105 55 -24
113 -51 128 -60 27 -15 29 -15 48 8 10 13 19 27 19 31 0 9 -97 60 -115 60 -7
0 -18 7 -25 15 -7 8 -18 15 -26 15 -10 0 -130 52 -175 76 -4 2 -11 -2 -17 -9z"/>
<path d="M8394 9756 c-28 -13 -65 -41 -82 -62 -29 -34 -32 -45 -32 -102 0
-120 67 -192 177 -192 91 0 119 9 169 53 69 60 94 143 60 192 -7 11 -16 32
-20 48 -4 18 -22 37 -54 57 -62 39 -142 41 -218 6z m177 -56 c50 -14 92 -60
84 -93 -11 -42 -71 -104 -120 -122 -63 -25 -156 -17 -190 15 -59 55 -15 148
90 189 57 23 85 25 136 11z"/>
<path d="M2685 9580 c-50 -79 -50 -178 1 -232 61 -64 102 -83 184 -83 63 0 80
4 109 24 60 43 96 170 58 208 -24 25 -36 7 -34 -52 2 -48 -2 -58 -26 -82 -24
-24 -35 -28 -85 -27 -40 1 -71 9 -107 27 -57 30 -84 63 -92 113 -5 31 -1 39
36 74 44 42 46 70 5 70 -17 0 -31 -12 -49 -40z"/>
<path d="M8665 9259 c-49 -11 -112 -24 -139 -29 -111 -22 -126 -29 -126 -56 0
-34 32 -44 89 -27 80 24 81 13 6 -61 -58 -56 -70 -91 -39 -116 13 -12 25 -4
84 55 l68 68 38 -32 c49 -40 88 -41 134 -3 36 31 39 49 25 147 -8 53 -20 75
-39 74 -6 0 -51 -9 -101 -20z m100 -70 c14 -21 -6 -60 -39 -76 -32 -15 -35
-14 -65 8 -34 25 -35 27 -22 47 15 24 114 41 126 21z"/>
<path d="M2571 9154 c-25 -32 -28 -109 -6 -141 19 -28 99 -55 128 -44 12 5 48
32 80 60 32 28 61 51 65 51 16 0 72 -41 72 -52 0 -7 -14 -27 -31 -44 -38 -39
-33 -64 10 -64 25 0 34 7 51 40 26 52 25 88 -4 131 -18 26 -37 39 -70 49 -62
17 -88 8 -146 -50 -54 -54 -75 -60 -110 -32 -25 20 -20 43 17 67 24 16 24 17
7 36 -23 26 -39 24 -63 -7z"/>
<path d="M5520 8575 c-6 -8 -16 -49 -21 -91 -6 -43 -12 -81 -15 -85 -2 -4 -9
-51 -14 -105 -5 -60 -14 -103 -23 -111 -15 -16 -147 -42 -209 -43 -33 0 -39 4
-54 38 -54 121 -139 283 -159 302 -23 22 -24 22 -87 6 -35 -9 -92 -26 -128
-39 l-65 -22 2 -50 c1 -50 22 -174 49 -295 18 -81 25 -74 -183 -166 -42 -19
-46 -18 -70 14 -41 55 -208 224 -236 239 -40 20 -67 11 -145 -49 -115 -88
-122 -106 -72 -193 16 -27 41 -72 56 -100 14 -27 39 -69 55 -93 16 -24 29 -48
29 -54 0 -13 -159 -182 -174 -186 -7 -1 -34 9 -61 23 -27 15 -133 69 -237 121
-104 52 -228 121 -276 153 -84 56 -162 129 -162 152 0 32 452 436 573 512 35
22 36 54 1 63 -82 21 -186 -25 -423 -186 -57 -39 -159 -117 -248 -192 -45 -37
-89 -68 -97 -68 -9 0 -38 14 -66 31 -35 22 -58 29 -74 25 -26 -6 -126 -124
-126 -147 0 -8 27 -38 60 -68 33 -29 60 -60 60 -68 0 -14 -26 -73 -85 -193
-34 -69 -91 -211 -118 -295 -26 -80 -38 -173 -35 -265 3 -84 3 -85 30 -88 31
-4 42 12 54 73 4 22 16 60 26 85 11 25 26 61 34 80 8 19 19 42 24 50 5 8 27
51 50 95 23 44 67 122 98 173 32 52 66 109 77 128 19 33 56 46 69 25 3 -5 41
-30 84 -56 42 -25 94 -58 114 -73 48 -35 118 -119 118 -142 0 -15 82 -93 284
-271 12 -11 -93 -217 -114 -224 -9 -3 -31 -1 -49 5 -19 5 -70 14 -115 20 -45
6 -94 15 -111 20 -57 16 -125 18 -140 4 -15 -15 -75 -198 -75 -230 0 -11 12
-32 28 -46 26 -25 310 -168 333 -168 8 0 10 -13 6 -37 -3 -21 -11 -69 -17
-108 -6 -38 -16 -75 -23 -81 -15 -14 -89 -28 -262 -50 -71 -9 -138 -20 -148
-25 -16 -9 -17 -24 -15 -136 l3 -127 32 -19 c39 -22 196 -55 310 -64 95 -7
103 -14 103 -96 0 -23 5 -59 11 -80 16 -57 14 -58 -191 -155 -19 -9 -65 -34
-102 -55 -57 -33 -68 -44 -68 -66 0 -30 34 -146 62 -209 l19 -43 47 6 c26 4
74 13 107 21 33 7 94 18 135 24 41 6 89 13 105 16 29 5 31 3 78 -89 26 -52 47
-102 47 -111 0 -10 -57 -75 -127 -145 -71 -70 -134 -135 -142 -144 -11 -15 -6
-27 47 -101 33 -46 65 -93 71 -105 16 -28 49 -45 64 -32 21 17 326 171 339
171 7 0 51 -36 98 -79 75 -70 84 -81 73 -98 -7 -10 -26 -45 -42 -78 -17 -33
-51 -97 -76 -143 -56 -104 -58 -131 -7 -170 44 -34 178 -122 187 -122 3 0 72
69 154 152 125 128 151 151 163 140 14 -11 50 -31 151 -85 21 -11 41 -25 43
-32 4 -11 -9 -100 -41 -265 -21 -113 -20 -147 8 -155 32 -8 114 -32 174 -50
92 -27 84 -34 179 163 48 97 92 180 97 184 6 4 18 3 26 -2 9 -4 56 -13 106
-19 49 -6 95 -17 103 -24 7 -8 20 -61 28 -118 8 -57 21 -140 27 -184 l12 -80
157 -3 c157 -2 158 -2 163 20 2 13 11 75 20 138 23 176 35 234 48 242 7 4 31
8 54 8 23 0 52 4 65 9 13 4 44 11 70 15 l47 7 32 -68 c120 -260 132 -284 147
-290 13 -6 78 8 210 43 35 10 66 24 69 32 6 14 -10 111 -48 300 -11 51 -17 98
-14 103 4 5 54 32 112 60 l105 51 147 -146 c81 -80 151 -146 156 -146 10 0 98
59 178 118 33 25 57 51 57 62 0 10 -35 77 -77 150 -107 180 -103 172 -103 200
0 18 18 43 63 87 81 80 93 85 144 68 22 -8 56 -23 74 -34 101 -60 242 -131
260 -131 18 0 32 14 85 90 83 119 84 122 75 138 -5 9 -71 78 -147 154 l-138
139 39 72 c21 40 48 86 61 103 22 30 25 31 71 23 26 -4 84 -13 128 -19 44 -6
115 -16 157 -22 43 -6 81 -9 84 -6 3 4 10 21 14 40 13 48 40 128 57 166 20 45
14 63 -27 83 -19 10 -102 50 -184 90 -81 40 -150 79 -153 86 -5 13 10 113 28
184 l9 37 68 6 c238 23 360 57 363 101 5 101 0 227 -10 238 -11 14 -47 22
-141 32 -63 7 -252 35 -271 41 -10 3 -19 19 -22 37 -3 18 -11 65 -17 104 -7
40 -10 80 -6 88 3 9 23 23 43 31 118 45 313 144 322 163 10 18 -19 139 -44
187 -8 16 -15 36 -15 44 0 25 -21 39 -49 35 -138 -22 -239 -39 -304 -51 -63
-12 -81 -13 -93 -3 -16 13 -104 189 -104 207 0 6 15 22 33 37 17 14 115 108
217 209 102 100 210 201 240 223 75 56 144 93 172 93 24 0 37 -19 107 -160 12
-25 27 -52 31 -60 13 -22 47 -91 60 -120 6 -14 50 -101 98 -194 117 -226 138
-239 133 -83 -3 112 -30 250 -65 338 -14 36 -26 69 -26 73 0 4 -34 76 -75 160
-41 84 -75 162 -75 174 0 13 22 38 60 69 33 26 60 54 60 61 0 7 -25 47 -55 88
-53 71 -78 87 -101 65 -21 -20 -104 -61 -124 -61 -13 0 -55 29 -100 68 -290
252 -472 372 -593 388 -46 7 -87 -7 -86 -29 0 -7 26 -33 57 -59 31 -26 93 -77
137 -113 44 -37 113 -94 153 -127 133 -110 252 -239 252 -273 0 -24 -77 -87
-174 -143 -106 -60 -180 -98 -361 -182 -60 -28 -131 -62 -156 -76 -26 -13 -53
-24 -60 -24 -20 0 -179 149 -179 167 0 14 18 50 97 188 19 33 40 74 48 92 8
17 19 34 25 38 23 14 6 43 -56 95 -84 71 -132 100 -167 100 -31 0 -91 -56
-223 -204 l-70 -80 -112 55 c-127 61 -124 57 -98 172 23 98 46 232 46 265 0
35 -8 42 -65 59 -22 6 -70 21 -108 32 -111 33 -116 28 -226 -189 -35 -69 -68
-131 -73 -137 -14 -17 -60 -16 -128 2 -30 8 -67 15 -82 15 -32 0 -30 -6 -53
165 -19 137 -39 209 -66 236 -17 17 -35 19 -143 19 -96 0 -126 -3 -136 -15z
m2871 -544 c16 -16 29 -36 29 -44 0 -15 -68 -67 -89 -67 -18 0 -61 50 -61 71
0 17 63 69 83 69 5 0 22 -13 38 -29z m-5337 -2 c41 -24 43 -32 16 -76 -26 -43
-59 -41 -112 4 -16 14 -15 17 4 54 23 45 41 48 92 18z m5086 -220 c0 -10 -20
-33 -45 -51 -25 -18 -76 -55 -113 -83 -38 -27 -102 -74 -143 -103 -41 -30
-132 -96 -204 -148 -71 -52 -182 -131 -245 -176 -63 -45 -143 -103 -177 -130
-35 -26 -65 -48 -67 -48 -3 0 -34 -21 -69 -47 -36 -27 -108 -79 -161 -118 -53
-38 -116 -85 -140 -102 -25 -18 -49 -33 -55 -33 -12 0 -51 49 -51 65 0 6 21
26 48 43 26 18 79 56 119 85 40 28 131 95 203 147 72 52 205 149 295 215 91
66 187 136 215 155 28 19 93 67 145 105 52 39 135 99 185 135 50 36 112 81
138 101 26 20 54 38 62 41 19 7 60 -30 60 -53z m-4781 -1 c39 -29 100 -75 138
-101 37 -27 111 -79 163 -116 52 -37 120 -85 150 -107 31 -21 93 -66 139 -99
148 -107 215 -156 266 -191 28 -19 73 -51 101 -72 28 -20 101 -73 163 -117 62
-44 144 -104 183 -132 39 -29 75 -53 80 -53 15 0 8 -53 -9 -72 -30 -33 -8 -45
-342 197 -210 152 -267 193 -351 253 -79 55 -388 278 -498 359 -52 37 -125 91
-163 118 -182 132 -170 119 -143 160 9 14 25 25 35 25 10 0 50 -24 88 -52z
m2521 -57 c94 -11 234 -37 257 -49 10 -5 35 -12 55 -16 20 -4 50 -13 65 -21
15 -8 34 -15 41 -15 8 0 26 -7 40 -14 15 -8 70 -35 122 -60 52 -24 112 -56
133 -70 21 -14 40 -26 42 -26 36 0 355 -288 355 -320 0 -8 -32 -37 -70 -65
-273 -197 -311 -226 -316 -239 -7 -17 76 -143 99 -151 13 -5 31 3 55 22 21 16
60 45 87 65 28 19 98 69 157 111 58 43 110 77 116 77 32 0 172 -265 220 -420
66 -209 100 -580 68 -743 -8 -40 -16 -83 -19 -97 -13 -66 -70 -278 -83 -310
-38 -87 -87 -180 -126 -238 -24 -35 -47 -71 -53 -80 -14 -24 -169 -221 -201
-257 l-27 -29 -19 24 c-41 51 -225 276 -283 345 -33 40 -104 127 -159 194 -54
66 -102 121 -107 121 -5 0 -24 -13 -42 -30 -53 -46 -58 -41 -55 48 l3 77 505
12 c278 6 513 11 523 12 32 2 18 32 -57 119 -78 93 -154 185 -243 297 -31 39
-74 89 -96 112 l-41 43 -300 -6 c-166 -3 -306 -2 -313 3 -9 6 -15 105 -22 353
-6 190 -12 388 -15 440 -3 52 -7 205 -11 339 -3 135 -11 253 -16 263 -9 17
-35 18 -452 18 -348 0 -447 -3 -461 -13 -17 -12 -17 -41 -7 -578 16 -813 16
-840 0 -850 -8 -5 -147 -9 -310 -9 -268 0 -299 -2 -317 -17 -11 -10 -67 -79
-124 -153 -57 -74 -150 -195 -207 -268 -68 -88 -101 -138 -97 -149 6 -14 40
-15 329 -9 177 3 419 9 538 12 179 6 217 4 220 -7 3 -8 3 -43 1 -77 -4 -62 -4
-64 -29 -57 -14 3 -38 15 -53 27 -15 11 -33 17 -39 14 -11 -7 -83 -102 -371
-486 -81 -107 -153 -200 -161 -207 -13 -10 -25 -3 -71 45 -89 92 -221 252
-266 322 -51 79 -142 264 -142 288 0 6 -6 26 -14 44 -50 115 -102 383 -113
588 -8 142 30 380 82 510 7 19 26 67 41 105 53 138 112 260 137 282 15 14 19
15 35 1 9 -8 41 -32 70 -52 84 -58 141 -98 239 -169 51 -37 101 -67 111 -67
20 0 102 119 102 148 0 9 -25 35 -55 57 -121 88 -144 104 -233 165 -98 67
-142 103 -142 118 0 12 124 137 190 192 30 25 66 56 80 69 36 33 208 148 255
169 186 86 271 115 440 149 157 31 368 40 525 24z m174 -259 c5 -9 34 -588 42
-842 5 -168 8 -235 20 -455 5 -83 3 -103 -9 -113 -10 -9 -72 -15 -185 -19
l-170 -6 -6 114 c-3 63 -8 182 -11 266 -5 145 -4 153 15 163 11 6 75 13 141
15 67 3 130 7 140 10 17 6 19 17 18 118 0 94 -11 378 -23 598 -1 30 -6 61 -10
67 -5 8 -51 12 -151 12 -135 0 -144 1 -150 20 -3 11 -3 29 0 40 6 19 15 20
170 20 90 0 166 -4 169 -8z m-388 -88 c19 -5 22 -15 27 -102 3 -56 1 -102 -5
-109 -5 -6 -22 -14 -37 -18 -41 -9 -88 -57 -101 -104 -19 -71 27 -147 115
-188 l40 -18 0 -114 c0 -96 -3 -114 -17 -122 -26 -14 -262 -11 -276 3 -8 8
-12 58 -13 157 0 81 -4 250 -8 376 -6 168 -6 232 3 237 13 9 241 10 272 2z
m97 -260 c18 -9 44 -28 60 -42 22 -21 27 -34 27 -75 0 -46 -4 -54 -41 -89 -30
-29 -48 -38 -68 -36 l-26 3 -3 105 c-3 100 2 150 14 150 3 0 19 -7 37 -16z
m-128 -779 l0 -110 -115 0 -115 0 -3 99 c-1 55 0 106 2 113 4 11 31 13 118 11
l113 -3 0 -110z m96 -331 c14 -8 11 -348 -3 -362 -9 -9 -172 -12 -670 -12
-748 0 -692 -8 -610 89 26 31 73 90 104 131 31 41 69 89 85 107 l28 32 465 13
c450 13 583 14 601 2z m382 -474 c4 0 6 -42 5 -92 l-3 -93 -165 -3 c-193 -3
-190 -5 -190 97 0 67 6 85 27 92 10 3 266 3 326 -1z m-318 -306 c13 -13 15
-40 13 -177 l-3 -162 -47 -3 c-34 -2 -48 1 -48 10 -4 91 0 330 5 338 10 16 62
12 80 -6z m399 -6 c23 -21 63 -73 313 -398 53 -69 112 -142 130 -163 48 -54
44 -68 -34 -114 -86 -49 -216 -113 -232 -113 -6 0 -19 -4 -29 -10 -18 -11 -78
-33 -156 -57 -35 -11 -50 -12 -55 -4 -7 10 -36 784 -33 840 3 46 55 55 96 19z
m-791 -5 c3 -5 6 -204 8 -443 4 -422 3 -435 -15 -438 -46 -9 -367 98 -446 148
-8 5 -28 16 -45 23 -16 8 -38 23 -47 34 -19 20 -21 17 154 257 20 28 58 80 83
116 92 130 111 156 168 233 56 73 61 77 97 77 21 0 41 -3 43 -7z m1189 -205
c45 -55 118 -141 160 -191 63 -73 76 -93 68 -108 -12 -21 -49 -49 -66 -49 -6
0 -53 53 -105 118 -51 64 -96 119 -99 122 -3 3 -34 40 -69 84 -57 71 -62 81
-52 102 13 28 50 46 68 32 6 -5 49 -54 95 -110z m-1538 81 c20 -12 36 -27 36
-34 0 -19 -318 -439 -335 -443 -20 -5 -77 37 -72 52 6 14 115 167 201 280 34
45 74 100 90 124 16 23 32 42 37 42 4 0 24 -9 43 -21z m967 -246 c6 -15 10
-73 10 -128 0 -55 3 -160 6 -233 5 -151 0 -167 -64 -174 -30 -4 -36 -1 -44 20
-10 27 -12 525 -2 535 3 4 24 7 45 7 33 0 40 -4 49 -27z m-435 -1 c8 -5 13
-90 15 -272 l4 -265 -30 -3 c-63 -6 -64 -2 -71 270 -6 194 -4 251 6 263 13 16
57 20 76 7z m259 -502 l0 -35 -64 -7 c-91 -10 -119 10 -90 63 9 17 19 19 82
17 l72 -3 0 -35z"/>
<path d="M5820 6490 c-25 -25 -26 -52 -2 -73 23 -21 51 -21 76 -2 16 12 22 12
47 0 37 -20 52 -19 74 5 38 42 -14 105 -62 74 -28 -18 -53 -17 -77 1 -26 19
-32 19 -56 -5z"/>
<path d="M5820 6331 c-14 -28 -12 -57 6 -75 23 -23 51 -20 80 9 l26 26 23 -26
c27 -28 29 -29 55 -15 34 18 43 47 24 75 -21 32 -67 34 -88 4 l-15 -22 -27 22
c-33 26 -70 27 -84 2z"/>
<path d="M8367 12012 c-23 -21 -80 -69 -127 -107 -47 -38 -89 -73 -95 -79 -5
-6 -37 -33 -70 -59 -33 -27 -64 -55 -68 -63 -6 -10 15 -43 67 -108 123 -153
171 -186 268 -186 171 0 320 128 321 275 1 70 -21 118 -87 193 -23 26 -62 72
-86 102 -46 57 -59 70 -73 70 -4 0 -26 -17 -50 -38z m129 -114 c125 -141 94
-267 -89 -362 -40 -21 -83 -36 -103 -36 -58 0 -139 52 -181 116 -19 29 -29 16
102 125 50 40 92 76 95 79 26 29 126 100 139 100 10 0 26 -10 37 -22z"/>
<path d="M2621 11710 c-23 -17 -63 -58 -89 -92 -26 -34 -68 -86 -94 -117 -26
-31 -48 -61 -48 -68 0 -17 407 -343 428 -343 17 0 153 166 193 235 18 31 23
55 23 110 0 86 -28 147 -101 217 -62 61 -126 88 -207 88 -54 0 -69 -4 -105
-30z m142 -79 c47 -18 153 -128 177 -183 22 -52 22 -54 6 -101 -21 -59 -73
-137 -91 -137 -13 0 -78 49 -243 184 -35 28 -74 58 -88 66 -31 19 -30 28 6 79
60 83 157 121 233 92z"/>
<path d="M8603 11357 c-116 -78 -212 -147 -212 -153 -1 -6 35 -66 80 -133 66
-100 85 -122 102 -119 36 5 30 29 -23 102 -27 38 -50 74 -50 81 0 15 156 118
171 113 6 -2 26 -31 44 -63 28 -52 36 -60 61 -60 41 0 42 26 1 72 -40 45 -56
73 -50 90 2 7 32 31 65 53 l60 42 23 -22 c12 -11 34 -45 49 -75 15 -29 35 -56
43 -59 18 -7 43 10 43 29 0 7 -34 64 -76 126 -55 81 -83 114 -98 116 -12 1
-107 -56 -233 -140z"/>
<path d="M2139 11039 c-21 -21 -25 -44 -9 -54 5 -3 86 -105 180 -226 94 -120
177 -219 186 -219 18 0 48 66 38 83 -4 7 -36 44 -71 83 -35 39 -63 76 -63 81
0 5 14 36 31 68 l32 58 68 -7 c37 -3 80 -11 95 -17 40 -15 72 -3 94 34 24 38
25 63 6 70 -13 5 -121 18 -271 32 -27 3 -81 10 -120 15 -140 19 -176 19 -196
-1z m249 -123 c10 -10 9 -18 -4 -44 -13 -27 -19 -30 -34 -22 -22 12 -60 63
-60 80 0 15 79 4 98 -14z"/>
<path d="M9155 10831 c-38 -21 -143 -75 -233 -121 -90 -45 -166 -88 -169 -97
-3 -8 1 -30 10 -49 21 -43 42 -44 115 -1 31 18 127 67 213 110 170 84 201 107
181 135 -7 9 -16 27 -22 40 -5 12 -13 22 -17 22 -5 -1 -39 -18 -78 -39z"/>
<path d="M1973 10574 c-47 -11 -104 -95 -159 -234 -10 -25 -26 -64 -36 -88
-36 -81 -36 -81 257 -195 201 -79 224 -87 229 -87 6 0 37 67 70 150 10 25 24
60 32 78 8 18 14 63 14 101 0 79 -24 133 -87 192 -69 65 -107 80 -208 84 -49
2 -100 1 -112 -1z m155 -119 c123 -52 182 -120 182 -210 0 -50 -21 -127 -41
-149 -7 -8 -50 6 -144 49 -16 7 -50 21 -75 30 -25 9 -63 25 -85 35 -22 10 -54
24 -72 30 -53 20 -58 33 -32 87 49 103 98 143 176 143 30 0 70 -7 91 -15z"/>
<path d="M9330 10550 c-20 -12 -65 -31 -275 -116 -186 -76 -195 -83 -156 -133
l19 -25 60 27 c33 15 65 27 72 27 6 0 24 7 38 15 79 43 141 63 155 49 3 -4
-21 -59 -55 -123 -157 -299 -166 -324 -133 -351 15 -12 38 -8 90 15 17 7 71
30 120 50 50 21 108 46 131 56 23 11 47 19 55 19 8 0 23 7 33 15 11 8 27 15
36 15 29 0 52 34 44 65 -4 14 -13 29 -21 32 -13 5 -66 -12 -126 -43 -16 -8
-33 -14 -39 -14 -6 0 -32 -10 -57 -21 -25 -12 -56 -26 -68 -32 -11 -5 -26 -7
-31 -3 -6 4 32 90 94 214 93 182 104 210 97 237 -7 24 -15 30 -38 32 -17 1
-37 -2 -45 -7z"/>
<path d="M1676 9942 c-3 -5 -8 -27 -12 -49 l-6 -40 58 -20 c33 -11 86 -28 119
-38 33 -9 76 -23 95 -30 19 -7 80 -28 135 -45 l99 -32 23 29 c13 15 23 35 23
44 0 31 -2 32 -300 125 -63 20 -130 42 -148 50 -37 16 -78 18 -86 6z"/>
<path d="M9351 9830 c-67 -24 -114 -60 -149 -113 -23 -34 -28 -53 -31 -124 -3
-92 9 -142 61 -251 41 -84 51 -88 146 -62 138 39 146 46 117 105 -15 34 -18
35 -53 29 -20 -4 -60 -15 -88 -26 -28 -10 -59 -16 -68 -12 -23 9 -66 96 -66
132 0 47 37 118 81 156 46 39 147 76 207 76 70 0 146 -51 183 -122 24 -46 24
-70 1 -141 -20 -60 -19 -68 16 -86 20 -11 27 -10 44 6 18 16 20 27 15 108 -4
83 -10 105 -50 193 -21 44 -79 102 -128 127 -64 31 -158 34 -238 5z"/>
<path d="M1587 9624 c-29 -33 -55 -108 -56 -159 -1 -50 34 -113 76 -137 17
-10 54 -21 81 -25 l50 -6 85 87 c75 75 90 86 120 86 39 0 84 -31 97 -66 13
-34 -4 -72 -41 -92 -77 -41 -83 -74 -18 -93 49 -15 62 -5 101 76 38 80 38 136
0 196 -46 70 -65 83 -138 87 -55 4 -69 1 -99 -19 -19 -13 -40 -35 -47 -48 -16
-30 -97 -101 -115 -101 -23 0 -72 29 -83 50 -16 30 -1 67 36 89 48 29 53 49
20 78 -34 29 -41 29 -69 -3z"/>
<path d="M9755 9180 c-16 -5 -82 -18 -145 -30 -63 -12 -157 -31 -207 -41 -51
-10 -95 -19 -99 -19 -8 0 3 -89 21 -170 8 -36 17 -82 20 -103 6 -34 9 -38 33
-35 23 3 27 7 26 33 -1 17 -9 59 -18 94 -9 36 -13 67 -9 71 11 10 146 40 177
40 28 0 31 -8 39 -94 6 -57 28 -86 55 -70 19 13 19 25 -5 107 -20 71 -16 76
72 92 61 12 69 11 85 -5 11 -11 21 -41 25 -77 3 -32 7 -65 8 -73 3 -20 41 -24
56 -6 10 12 10 23 2 48 -6 18 -17 69 -25 113 -24 139 -32 147 -111 125z"/>
<path d="M1525 9133 c-11 -3 -30 -14 -43 -26 -24 -23 -62 -135 -62 -185 0 -18
-5 -52 -12 -77 -7 -24 -10 -47 -7 -49 2 -3 54 -14 114 -25 61 -12 135 -26 165
-32 30 -6 89 -17 130 -24 41 -8 84 -17 95 -20 26 -7 37 2 52 44 22 61 6 72
-120 87 -101 11 -90 30 60 103 103 51 106 54 119 123 4 28 3 39 -8 43 -8 3
-67 -21 -132 -55 -116 -60 -146 -70 -146 -49 0 21 -39 95 -63 117 -24 23 -100
37 -142 25z m116 -142 c35 -37 48 -96 26 -118 -14 -15 -22 -14 -84 1 -37 9
-78 16 -89 16 -40 0 -40 37 -1 93 38 55 100 58 148 8z"/>
<path d="M9770 8670 c-30 -5 -127 -16 -215 -25 -94 -10 -163 -21 -167 -28 -13
-20 -9 -54 7 -67 15 -13 36 -11 329 23 10 1 21 -3 23 -9 2 -7 -60 -77 -137
-157 -193 -198 -212 -226 -175 -257 12 -10 34 -10 103 -1 48 6 150 15 227 21
209 16 246 31 210 87 -14 21 -22 24 -53 19 -20 -3 -73 -8 -117 -11 -88 -7
-119 -11 -151 -20 -12 -4 -25 -2 -29 4 -6 11 17 37 191 221 128 134 125 131
122 169 l-3 36 -55 1 c-30 1 -80 -2 -110 -6z"/>
<path d="M1383 8588 c-12 -15 -33 -170 -33 -240 0 -25 6 -50 13 -56 6 -5 46
-13 87 -16 41 -4 127 -13 190 -21 208 -25 236 -27 247 -13 6 7 16 67 22 133 7
66 14 130 17 142 5 18 1 23 -20 29 -35 8 -38 4 -40 -53 -7 -158 1 -149 -121
-133 -53 7 -99 18 -101 24 -2 6 2 40 10 76 16 78 12 92 -23 88 -25 -3 -26 -6
-35 -85 l-8 -83 -53 0 c-28 0 -67 5 -84 11 l-33 12 4 96 c2 81 1 96 -13 99 -9
1 -20 -3 -26 -10z"/>
<path d="M1366 8108 c-8 -40 8 -57 88 -99 123 -64 171 -91 187 -105 8 -8 20
-14 26 -14 13 0 43 -33 43 -48 0 -7 -12 -12 -26 -12 -15 0 -68 -10 -118 -21
-213 -50 -249 -59 -253 -63 -10 -9 -23 -88 -17 -98 8 -13 49 -5 189 34 61 17
128 34 150 39 85 17 201 51 223 65 13 9 22 25 22 39 0 20 -16 35 -84 80 -47
30 -87 55 -91 55 -3 0 -28 16 -55 35 -27 19 -52 35 -55 35 -5 0 -106 62 -147
91 -15 10 -38 19 -51 19 -19 0 -26 -7 -31 -32z"/>
<path d="M9446 7944 c-23 -22 -21 -71 3 -84 21 -11 225 -11 426 -1 l120 6 0
45 0 45 -267 3 c-232 2 -268 0 -282 -14z"/>
<path d="M9442 7648 c-19 -19 -17 -282 3 -298 33 -28 44 -5 47 97 l3 98 100 0
100 0 0 -90 c0 -85 1 -90 22 -93 32 -5 45 29 41 104 -1 37 2 68 8 74 7 7 41
10 85 8 l74 -3 1 -93 c1 -97 10 -121 39 -104 15 8 17 27 17 153 l1 144 -74 6
c-141 12 -454 10 -467 -3z"/>
<path d="M1334 7447 c-17 -10 -19 -78 -2 -95 8 -8 51 -12 123 -13 60 0 151 -5
200 -10 156 -16 200 -17 213 -7 16 14 16 73 -1 86 -7 6 -102 18 -212 26 -268
21 -304 22 -321 13z"/>
<path d="M9426 7193 c-11 -12 -6 -102 7 -110 6 -4 54 -10 106 -13 52 -3 96 -9
98 -15 1 -5 -20 -23 -49 -38 -105 -58 -179 -111 -183 -131 -3 -12 -6 -39 -7
-61 -3 -35 -1 -40 17 -37 11 2 36 14 55 27 132 87 183 116 198 113 9 -2 19
-17 23 -38 5 -21 22 -48 43 -67 32 -29 42 -33 95 -33 100 0 138 53 145 205 2
46 7 89 11 94 3 6 3 20 0 31 -8 24 -54 37 -160 45 -256 19 -352 26 -371 30
-12 3 -24 2 -28 -2z m454 -152 c45 -7 45 -7 44 -44 -2 -53 -44 -97 -94 -97
-28 0 -43 8 -68 33 -36 37 -51 89 -32 112 12 14 19 14 150 -4z"/>
<path d="M1700 7125 c-52 -7 -151 -18 -219 -24 -68 -6 -130 -16 -138 -22 -18
-15 -16 -54 3 -70 13 -11 34 -11 122 0 172 21 222 24 222 14 0 -5 -50 -62
-111 -126 -61 -64 -124 -133 -141 -154 -16 -21 -36 -42 -44 -46 -19 -11 -18
-81 1 -97 8 -6 23 -9 35 -5 23 7 53 11 140 20 232 23 351 39 361 51 7 9 8 23
2 41 l-10 28 -84 -4 c-46 -1 -124 -9 -174 -16 -49 -8 -94 -10 -98 -6 -8 8 34
57 198 231 123 130 125 132 125 155 0 48 -26 52 -190 30z"/>
<path d="M9370 6621 c-15 -28 -12 -67 5 -81 8 -7 52 -16 97 -21 46 -5 99 -14
118 -19 19 -4 76 -14 125 -20 50 -6 107 -16 128 -22 44 -13 54 -7 72 46 9 26
10 38 1 45 -13 10 -89 26 -226 46 -52 8 -140 21 -195 29 -124 19 -112 20 -125
-3z"/>
<path d="M1740 6420 c-30 -4 -71 -12 -90 -18 -19 -6 -55 -14 -80 -17 -59 -9
-122 -26 -137 -38 -19 -14 -16 -41 7 -62 19 -17 23 -17 112 3 167 38 202 44
268 49 56 4 70 1 100 -19 65 -44 81 -145 32 -202 -25 -29 -113 -64 -188 -76
-37 -6 -71 -13 -75 -15 -4 -3 -42 -12 -86 -20 -90 -17 -106 -31 -89 -78 17
-48 26 -59 45 -52 19 8 166 41 261 60 87 17 131 37 180 83 42 41 45 50 41 157
-2 57 -26 137 -53 177 -41 60 -125 83 -248 68z"/>
<path d="M9330 6384 c-19 -48 -12 -62 51 -104 33 -22 63 -40 67 -40 4 -1 20
-11 35 -23 l28 -23 -17 -65 c-9 -35 -19 -67 -23 -72 -4 -4 -45 -12 -92 -17
-129 -16 -125 -14 -144 -71 -15 -43 -15 -53 -4 -60 19 -12 37 -11 79 2 19 6
73 17 120 24 234 38 283 46 337 58 53 12 58 16 61 43 2 25 -5 35 -50 67 -70
51 -278 204 -354 261 -34 25 -66 46 -73 46 -6 0 -16 -12 -21 -26z m289 -263
c43 -35 34 -51 -30 -51 -43 0 -49 3 -49 21 0 27 18 59 33 59 7 0 27 -13 46
-29z"/>
<path d="M8696 5028 c-9 -12 -16 -27 -16 -33 0 -13 36 -48 60 -59 8 -4 24 -12
35 -19 11 -7 49 -30 85 -51 106 -64 170 -117 192 -159 17 -35 19 -46 9 -78 -6
-21 -25 -52 -42 -68 -27 -27 -38 -31 -85 -31 -52 0 -66 6 -210 91 -85 50 -157
95 -160 100 -3 5 -14 9 -24 9 -19 0 -60 -56 -60 -82 0 -12 41 -39 170 -113 10
-6 24 -16 31 -22 8 -6 46 -27 84 -47 60 -32 79 -37 137 -38 54 0 72 5 98 23
40 30 94 111 121 183 20 56 21 59 4 104 -30 81 -103 141 -325 267 -10 6 -24
16 -31 22 -31 24 -57 24 -73 1z"/>
<path d="M2750 4975 c-14 -8 -38 -21 -55 -30 -16 -8 -57 -31 -90 -51 -33 -19
-73 -41 -90 -50 -16 -8 -48 -25 -70 -38 -22 -13 -59 -34 -82 -45 -69 -36 -70
-41 -25 -123 78 -144 98 -173 120 -176 40 -6 36 25 -12 100 -25 39 -46 77 -46
84 0 7 39 34 87 61 48 26 100 55 115 63 15 8 70 39 122 68 106 58 115 74 73
124 -21 26 -24 27 -47 13z"/>
<path d="M2780 4450 c-112 -76 -211 -147 -218 -158 -11 -17 -9 -24 13 -51 15
-17 30 -31 35 -31 6 0 436 282 448 295 3 3 -3 23 -13 45 -13 29 -24 40 -39 39
-12 0 -113 -63 -226 -139z"/>
<path d="M8365 4462 c-11 -4 -30 -14 -43 -22 -26 -17 -162 -191 -162 -208 0
-6 82 -75 183 -153 100 -78 194 -153 209 -167 30 -27 41 -24 81 24 l26 31 -27
25 c-15 14 -49 42 -77 62 -27 21 -50 43 -50 49 0 9 39 12 134 12 l133 1 29 34
c50 60 42 65 -121 68 -149 3 -168 8 -149 44 26 49 -1 144 -51 179 -29 21 -86
31 -115 21z m70 -134 c24 -28 27 -39 22 -82 -9 -93 -44 -92 -147 3 l-55 51 33
30 c26 24 41 30 76 30 37 0 48 -5 71 -32z"/>
<path d="M2938 4194 c-146 -98 -218 -152 -218 -163 0 -22 31 -51 53 -51 9 0
66 36 126 80 94 69 131 91 131 77 0 -2 -6 -17 -14 -33 -8 -16 -24 -51 -36 -79
-28 -67 -50 -114 -67 -147 -34 -67 0 -88 94 -59 37 12 72 21 80 21 7 0 39 9
70 20 66 23 93 25 93 8 0 -7 -46 -59 -102 -115 -100 -100 -101 -102 -85 -125
49 -70 62 -73 102 -25 15 17 66 73 114 122 239 250 225 233 212 261 -10 23
-16 25 -54 21 -52 -6 -296 -65 -319 -78 -19 -10 -58 -12 -58 -4 0 6 41 108 66
163 21 48 40 91 63 144 12 26 21 55 21 65 0 23 -19 43 -39 43 -9 0 -114 -66
-233 -146z"/>
<path d="M7958 4019 c-54 -55 -98 -106 -98 -112 0 -18 363 -377 380 -377 25 0
213 194 208 216 -5 26 -54 32 -62 7 -4 -10 -26 -40 -51 -66 -36 -38 -49 -46
-63 -38 -23 12 -132 127 -132 139 0 5 25 31 56 57 40 34 54 53 52 69 -6 39
-42 31 -84 -19 -61 -73 -66 -74 -129 -14 -30 29 -55 60 -55 70 0 10 23 37 51
61 61 51 75 74 58 94 -6 8 -17 14 -23 14 -6 0 -55 -46 -108 -101z"/>
<path d="M7659 3757 c-68 -42 -189 -140 -189 -152 0 -7 19 -37 43 -67 24 -29
94 -122 157 -205 91 -122 118 -153 137 -153 24 0 73 40 73 59 0 6 -29 46 -65
90 -36 44 -65 83 -65 87 0 3 27 35 59 70 48 51 61 72 66 108 10 63 -1 98 -44
145 -35 37 -42 41 -87 41 -33 -1 -61 -8 -85 -23z m73 -92 c37 -36 54 -86 42
-121 -10 -26 -45 -64 -60 -64 -14 0 -124 137 -124 154 0 17 63 65 85 66 11 0
37 -16 57 -35z"/>
<path d="M3710 3711 c-25 -15 -81 -47 -125 -71 -44 -23 -84 -46 -90 -50 -5 -4
-50 -29 -100 -55 -49 -26 -103 -57 -118 -67 l-28 -20 22 -24 c44 -47 49 -45
202 59 37 25 63 17 111 -32 l40 -40 -28 -88 c-16 -49 -30 -95 -33 -103 -5 -20
64 -90 82 -84 14 6 45 74 45 99 0 8 12 54 26 102 31 103 61 214 73 263 5 19
14 49 21 67 14 40 -1 73 -33 72 -12 0 -42 -13 -67 -28z m-30 -135 c0 -8 -4
-18 -10 -21 -5 -3 -10 -14 -10 -24 0 -9 -6 -25 -13 -35 -13 -17 -15 -17 -41 5
-33 29 -28 50 17 71 42 20 57 21 57 4z"/>
<path d="M4647 3210 c-43 -10 -81 -21 -85 -24 -12 -13 15 -41 39 -42 48 -1 53
-13 28 -69 -5 -11 -13 -38 -18 -60 -9 -39 -73 -244 -86 -276 -7 -18 41 -59 69
-59 19 0 42 34 51 75 4 17 12 46 19 65 8 19 18 53 24 75 5 22 15 54 20 70 6
17 18 57 28 90 9 33 23 77 30 98 13 34 12 39 -6 57 -11 11 -23 19 -27 19 -5
-1 -43 -9 -86 -19z"/>
<path d="M6345 3133 c-82 -18 -129 -54 -166 -125 -15 -30 -19 -59 -19 -147 0
-185 45 -261 168 -286 21 -4 54 1 97 15 89 30 115 66 115 164 0 114 -49 166
-157 166 -28 0 -58 -7 -71 -16 -37 -26 -56 -11 -48 37 12 77 63 149 106 149 8
0 21 4 29 9 12 8 12 12 2 25 -14 16 -20 17 -56 9z m48 -294 c54 -41 59 -150
10 -201 l-26 -27 -38 30 c-63 50 -77 153 -27 199 28 25 49 25 81 -1z"/>
<path d="M5140 3104 c-55 -24 -79 -60 -80 -120 0 -34 5 -56 15 -64 22 -18 18
-36 -14 -62 -34 -27 -71 -96 -71 -132 0 -48 31 -107 69 -130 53 -34 143 -47
202 -30 113 34 156 187 76 272 l-21 23 26 24 c85 79 41 198 -82 224 -65 14
-77 13 -120 -5z m107 -52 c38 -24 36 -106 -3 -143 -27 -25 -46 -21 -70 15 -37
57 22 160 73 128z m-10 -234 c54 -51 13 -208 -55 -208 -35 0 -46 8 -66 47 -20
40 -20 60 0 109 29 71 78 92 121 52z"/>
<path d="M5730 3071 l-125 -6 -3 -34 c-2 -18 0 -37 5 -42 4 -4 55 -4 113 1 57
5 108 6 111 2 7 -7 -8 -41 -62 -139 -14 -27 -45 -83 -68 -126 -23 -43 -51 -93
-62 -110 -42 -70 -38 -87 20 -87 l40 0 41 86 c22 47 40 88 40 91 0 4 6 14 14
22 7 9 40 68 73 131 32 63 67 127 77 142 10 15 16 37 14 50 -4 27 -20 28 -228
19z"/>
<path d="M5580 1479 c-80 -10 -386 -41 -680 -69 -294 -27 -581 -55 -637 -61
l-103 -12 0 -443 0 -444 1610 0 1610 0 0 445 0 445 -39 0 c-130 0 -1076 93
-1431 140 -167 23 -142 23 -330 -1z m-1098 -473 c4 -192 9 -206 84 -206 34 0
47 5 63 26 19 24 21 40 21 185 l0 159 71 0 70 0 -3 -184 -3 -184 -31 -39 c-50
-63 -83 -75 -200 -71 -93 3 -104 6 -138 31 -65 50 -71 71 -74 270 l-4 177 71
0 70 0 3 -164z m638 36 l85 -127 3 128 3 127 69 0 70 0 -2 -237 -3 -238 -65
-3 -66 -3 -89 133 -90 133 -3 -132 -3 -133 -64 0 c-36 0 -65 3 -65 8 0 19 -1
458 0 465 0 4 30 7 68 7 l67 -1 85 -127z m478 -109 l-3 -238 -70 0 -70 0 -3
238 -2 237 75 0 75 0 -2 -237z m730 170 l-3 -48 -102 -3 -103 -3 0 -39 0 -40
90 0 90 0 0 -45 0 -45 -90 0 -90 0 0 -95 0 -95 -70 0 -70 0 0 230 0 230 176 0
175 0 -3 -47z m232 -182 l0 -229 -71 -4 c-39 -2 -73 -1 -75 1 -2 2 -4 107 -4
233 l0 228 75 0 75 0 0 -229z m320 94 c19 -74 38 -135 42 -135 4 0 8 8 8 17 0
9 14 70 31 135 l32 118 93 0 94 0 0 -228 c0 -126 -2 -231 -4 -233 -2 -2 -29
-2 -60 -1 l-56 4 -2 161 -3 162 -39 -155 c-21 -85 -42 -159 -47 -165 -4 -5
-29 -8 -56 -7 l-50 4 -39 159 c-21 87 -42 159 -46 159 -5 0 -8 -73 -8 -162 l0
-163 -55 3 -55 4 0 229 0 229 93 0 94 0 33 -135z"/>
</g>
</svg>
